<svg xmlns="http://www.w3.org/2000/svg" viewBox="0 0 700.46 578.15"><defs><style>.cls-1{fill:#3db868;}</style></defs><title>LOGO SOARTE SVGAtivo 2</title><g id="Camada_2" data-name="Camada 2"><g id="Camada_1-2" data-name="Camada 1"><path class="cls-1" d="M204.08,64.81c8.46-.06,16.91-.38,25.36.19a244.11,244.11,0,0,1,53.42,9.32A219.47,219.47,0,0,1,357,112.51a202.6,202.6,0,0,1,48.29,54,185.83,185.83,0,0,1,25.1,67.06,180.8,180.8,0,0,1,2.45,41,189.51,189.51,0,0,1-17.66,69.38c-11.44,24.33-27.48,45.17-47.21,63.27A212.85,212.85,0,0,1,329,435.08a218.2,218.2,0,0,1-45.48,19.3,278.77,278.77,0,0,1-31.17,7.2c-6.78,1.21-13.7,1-20.43,2.2-7.3,1.27-14.56-.11-21.83.58-5,.48-10-1.07-14.92-1.13-7.92-.09-15.52-2.19-23.32-3a75.65,75.65,0,0,1-12.48-2.85c-7.8-2.19-15.64-4.35-23.24-7.26a223.09,223.09,0,0,1-52.4-28,217.21,217.21,0,0,1-30.33-26.29,200.62,200.62,0,0,1-25.95-34.21A204.22,204.22,0,0,1,9.17,321.81c-3-8.84-4.84-17.95-6.59-27.1C1,286.38,1.12,277.93.29,269.56c-.91-9.21.55-18.24,1.05-27.3C1.73,235.14,3.59,228,5.28,221a187.11,187.11,0,0,1,10-29.94,205,205,0,0,1,9.32-18.93,185.32,185.32,0,0,1,21.32-30.75,197.07,197.07,0,0,1,20-20.34A223,223,0,0,1,98,97.09a226.45,226.45,0,0,1,81.7-29.47c7.67-1.09,15.39-1.8,23.09-2.68A.94.94,0,0,0,204.08,64.81ZM366.41,265.5c-.26-13.18-1.78-25.22-5.61-36.88-12.28-37.36-37.32-63.51-72-80.68-28.7-14.2-59.2-19.11-91-15.36-39.37,4.64-73.13,20.63-99.4,50.66C72.82,212.41,62.46,246.6,69,284.92c5.81,34.3,24.32,61.29,52.19,81.64,33.8,24.68,71.87,34,113.36,29.73,33-3.4,62.43-15.46,87.39-37.46C350.21,333.88,365.58,302.59,366.41,265.5Z"/><path class="cls-1" d="M537.9,0c26.42.08,50.32,7.83,71,24.33,19.68,15.68,32.46,36,36.33,60.93,4.61,29.68-3.33,56.18-23.29,78.79-19.51,22.1-44.29,33.72-73.48,36.43-21.18,2-41.25-1.89-60.45-10.89a108.12,108.12,0,0,1-22.84-14.82,99.43,99.43,0,0,1-28.51-39c-5.39-12.86-7.11-26.46-6.49-40.44.76-16.93,6.08-32.19,15.17-46.37a102.59,102.59,0,0,1,37.19-34.76A111.08,111.08,0,0,1,526.44.64C530.26.27,534.07.08,537.9,0Zm-6,150.52c18.56.24,30.06-3.09,40.46-10.1,26.64-18,29.7-53.06,6.52-74.79s-62.44-20.28-84,3c-15.37,16.64-17.09,40.74-3.7,59C502.69,143.3,518.83,150.09,531.89,150.52Z"/><path class="cls-1" d="M581.55,380.71c-7.41,1.81-14.4,3.2-21.18,5.24-12.78,3.86-25.41,8.2-36.9,15.22-9.46,5.78-18.05,12.48-23.2,22.65a22.34,22.34,0,0,0-2.44,10.34q.09,49.57-.08,99.15c0,9.24,4.16,16.55,10,23.17a49.72,49.72,0,0,0,8,7.32c-5.84,2.28-11.56,3.65-17.19,5.3a254.73,254.73,0,0,1-32.6,6.81c-9.59,1.49-19.41,1.71-29.16,2.16-8.54.39-16.89-.69-25.17-2.1a75.65,75.65,0,0,1-27.71-10.75c-.44-.27-.65-.89-1.11-1.54,5.53-1,8.72-4.92,11.83-8.95A21,21,0,0,0,399.31,541c-.24-19.39,0-38.8-.15-58.2,0-4.25-.34-8.57-2.91-12.35-3.68-5.42-9.62-7.49-15.38-4.58-5,2.51-9.37.4-13.58-1.38-2.26-.95-1.48-4.06-.8-6.23,1.82-5.77,6.38-8.65,11.82-9.85,4.71-1,8-3.94,11.58-6.69,2.83-2.15,5.32-4.66,7.92-7,11.74-10.69,21.69-22.93,28.61-37.24,3.26-6.76,5.85-14,6.09-21.82.1-3.41,1-6.78.05-10.2-.34-1.19.57-1.4,1.37-1.89,6.12-3.83,12.82-6.55,19.13-10,3.06-1.69,6.3-3.06,9.32-4.82,1.88-1.09,3.25-1,5.14.16,20.84,12.66,43.36,19.79,67.86,19.94a93.71,93.71,0,0,0,27.67-4,3.65,3.65,0,0,1,4.4,1.14C571.94,370.79,576.59,375.53,581.55,380.71Z"/><path class="cls-1" d="M530.2,208c24.08,1.13,47.79,12.36,62.37,38.43,15.82,28.28,8.59,62.28-16.7,83.25-32.08,26.6-80.35,23.52-108.73-7a65.84,65.84,0,0,1-8.64-78.62,68.23,68.23,0,0,1,28.7-26.95C499.09,211.17,511.75,207.85,530.2,208Z"/><path class="cls-1" d="M640.22,368.24c-2.75-.18-6.44.28-9.93-1.24a2.4,2.4,0,0,0-3,.91c-6.39,8-15.24,10.85-24.75,9.64-11.7-1.48-21.94-9.44-21.86-23.18,0-8.65,6.32-16.51,15.71-20,1.88-.7,2.91-1.41,2.81-3.75-.8-18.93,13-34.72,30.95-39.17,14.86-3.68,28.61-1,40.19,9.09,21.16,18.39,16.26,47.84-5.27,61A42.68,42.68,0,0,1,640.22,368.24Z"/><path class="cls-1" d="M385.62,32.45c15.95.22,28.76,6.53,37,20.42,9.11,15.35,5.19,34.7-8.84,46.41-14.54,12.14-36.88,13.33-52.52,2.91a38.09,38.09,0,0,1-16.64-23.55,34.6,34.6,0,0,1,6-28.95C359.4,37.72,371.79,32.16,385.62,32.45Zm.08,47c5.69,0,10.05-3.73,10.06-8.7s-4.54-8.91-10-8.87-9.74,3.83-9.85,8.64C375.81,75.61,380,79.43,385.7,79.48Z"/><path class="cls-1" d="M647.38,281.15c-17.13-.63-32.81-8.45-42.79-25.82-10.54-18.33-5.58-41.52,11.32-55.8,20.18-17.07,52.37-16,71.59,3.43,18.83,19,16.84,49.46-4,66.24C673.61,277.15,662.5,281,647.38,281.15Zm1.12-15.82c8.78,0,15.41-1.91,21.5-5.66,16.84-10.4,19.77-32,6.21-45.75-13.2-13.42-36.73-14.23-50.79-1.74-12.79,11.36-14.08,28.95-2.76,41.52A34.76,34.76,0,0,0,648.5,265.33Z"/></g></g></svg>