<svg xmlns="http://www.w3.org/2000/svg" viewBox="0 0 740.13 1196.83"><defs><style>.cls-1{fill:#cc6a1f;}.cls-2{fill:#fffcc0;}.cls-3{fill:#fc3d3d;}.cls-4{fill:#992020;}.cls-5{fill:#d3dae5;}.cls-6{fill:#224966;}.cls-7,.cls-8{fill:#020b1e;}.cls-7{opacity:0.25;}.cls-8{opacity:0.3;}.cls-9{fill:#1aa7d3;}.cls-10{fill:#0f7da8;}.cls-11{fill:#9b3c0d;}.cls-12{fill:#601805;opacity:0.19;}.cls-13{fill:#994710;}.cls-14{fill:#c1411a;}.cls-15{fill:#5b0000;}.cls-16{fill:#ef8f6f;}.cls-17{fill:#fff;}.cls-18{fill:#701608;}.cls-19{fill:#f9feff;}.cls-20{fill:#461d14;}.cls-21{fill:#fefffe;}.cls-22{fill:#351601;}.cls-23{opacity:0.11;}</style></defs><title>menino pulandoAtivo 4</title><g id="Camada_2" data-name="Camada 2"><g id="Camada_1-2" data-name="Camada 1"><path class="cls-1" d="M322.28,847.2c.43,1.7-62.14,20.8-62.93,18.83-6.88-17.12-17.76-52.67-21.56-62.67l66.83-20.47C308.71,800.81,319.14,835,322.28,847.2Z"/><path class="cls-2" d="M325.26,854.26c.22,1.16-70.76,22-71.33,20.64-5-11.42-11.63-35.51-14.3-42.2l75.81-22.25C318,823.65,323.63,845.89,325.26,854.26Z"/><path class="cls-3" d="M236.3,860.47c-.07-4,.65-9.22,1-13.94.27-3.51,31.3-12,33.6-4.45a46.7,46.7,0,0,1,1.3,5.27c5.3-1.49,11-3.22,17-5.21a300.74,300.74,0,0,0,32.39-12.56c4,11.84,9.05,32.92,13.42,46.12,0,0-130.23,66-157.77,52.33C169.5,924.19,196.78,889.08,236.3,860.47Z"/><path class="cls-4" d="M332.47,867.37c.87,3,1.73,5.82,2.56,8.33,0,0-130.23,66-157.77,52.33-1.1-.54-1.48-1.71-1.25-3.39C216.43,921.8,299.9,883.13,332.47,867.37Z"/><path class="cls-5" d="M248.77,869.3a2,2,0,0,0,1.84.3,2,2,0,0,0,1-.7,2,2,0,0,0-.41-2.81c-7.42-5.54-17.82-6.52-25.32-2.45a2,2,0,0,0,1.93,3.53C233.93,863.77,242.57,864.68,248.77,869.3Zm-8.36,7.55a2,2,0,1,0,2-3.46,28.1,28.1,0,0,0-25.37-2,2,2,0,0,0-1.08,2.63,2,2,0,0,0,2.63,1.07A23.87,23.87,0,0,1,240.41,876.85Zm-33.9,5.9a2,2,0,0,0,2.68.92c6.07-3.07,15.43-2.38,22.64,1.46a2,2,0,0,0,1.58.13,2.06,2.06,0,0,0,1.14-1,2,2,0,0,0-.83-2.72c-8.28-4.41-19.07-5.05-26.29-1.51A2,2,0,0,0,206.51,882.75Z"/><path class="cls-1" d="M463.91,863.45c.74,1.58-57.2,32-58.34,30.2-9.93-15.55-27.24-48.46-32.82-57.58l61.86-32.53C442,820.39,458.54,852,463.91,863.45Z"/><path class="cls-2" d="M469.08,867.45c.49,1.08-63.68,37.87-64.54,36.73-7.5-9.94-19.59-31.81-23.75-37.69l68.52-39.34C454.91,839.38,465.54,859.69,469.08,867.45Z"/><path class="cls-3" d="M383.33,892.05c-.87-3.87-1.22-9.16-1.82-13.87-.44-3.48,28.23-18.08,32-11.14a48,48,0,0,1,2.34,4.9c4.89-2.52,10.13-5.38,15.6-8.53a304.58,304.58,0,0,0,29.18-18.85C467,855.35,476.15,875,483.1,887c0,0-114.22,90.93-144,83.12C330.77,968,350.4,928.05,383.33,892.05Z"/><path class="cls-4" d="M478.91,879.38c1.45,2.73,2.87,5.34,4.19,7.64,0,0-114.22,90.93-144,83.12-1.18-.31-1.8-1.38-1.91-3.07C376.26,956.12,450.2,901.39,478.91,879.38Z"/><path class="cls-5" d="M397.33,898.18a2,2,0,0,0,2.67-1,2,2,0,0,0-1-2.67c-8.39-3.92-18.77-2.78-25.29,2.72a2,2,0,0,0,2.6,3.07C381.67,895.76,390.32,894.9,397.33,898.18Zm-6.67,9.08a2,2,0,0,0,1.65-.16,2.05,2.05,0,0,0,.89-1.09,2,2,0,0,0-1.26-2.55,28.08,28.08,0,0,0-25.24,3.21,2,2,0,0,0-.52,2.79A2,2,0,0,0,369,910,23.87,23.87,0,0,1,390.66,907.26Zm-32,12.62a2,2,0,0,0,2.82.37c5.31-4.23,14.62-5.46,22.46-3.15a2,2,0,0,0,1.13-3.85c-9-2.65-19.7-1.1-26.05,3.82A2,2,0,0,0,358.65,919.88Z"/><path class="cls-6" d="M412.48,679.4c-38.29,10.3-120,28.23-120.58,31.69-.78,5.1,6.18,31.47,20.67,88.76-15.58,5.77-56.65,16.21-76.8,20C217.33,761.38,209.32,737.45,202,710.2c-7.09-26.36-1-59.8,21.42-73.22,16.66-10,97.88-44.18,154.8-68.7C422.85,549.05,428.44,634,412.48,679.4Z"/><path class="cls-7" d="M300,601.91l8.54-3.69c33,.37,83.47,5.22,110.93,9.88,2.95,23.17.15,51.12-6.94,71.3-38.29,10.3-120,28.23-120.58,31.69v.33c-1.53-7.78-2.36-14-1.9-17.08,3-19.71,24.4-41,35.39-50.06C342.16,630.46,313.08,610,300,601.91Z"/><path class="cls-6" d="M498.33,683.07c-16.27,15.95-87.77,48.19-87.82,51.69-.08,5.16,10.89,27.86,33.07,81-14.21,7.89-53.53,26.42-72.51,35-27.58-52.68-37.29-79.33-49.93-104.55-11.6-23.14-8.95-56.56,10.22-74.29C346.21,658.22,435.93,589.15,489,557.13a414.12,414.12,0,0,1,21.06,69.66C514.14,646.69,513.91,667.78,498.33,683.07Z"/><path class="cls-8" d="M487.63,558l1.73.06a417.9,417.9,0,0,1,19.89,65.16c-38.42,16-75.45-2.75-122.1,4.71C395.09,621.94,480.51,562.3,487.63,558Z"/><path class="cls-9" d="M305.58,583.09c-8.15-10.54-.75-12.92,1.4-17,4.74-9-15-66.12-51.72-165.23,57.9-13.82,122.79-23.94,180.07-23.18,48.3,109.76,72.33,187.24,81.68,227.77-55.93,30.88-76.2,14.83-134.58,24.5-37.72,6.24-57.05-21.41-85.8-26.47C289.67,587.94,312.87,592.51,305.58,583.09Z"/><path class="cls-1" d="M636.41,369.47c3.11.28-.87,40.86-4,40.75-56.16-2-95.62-2.79-151.92,8.86-1.22-28.25-2.77-49.26,29.34-58.57C525.37,356,587,365,636.41,369.47Z"/><path class="cls-10" d="M514.28,356.14c-30.56,4.65-96,18.94-136.2,23.59-3.28,2.9,56.55,82.84,74.93,78.19,32.45-8.22,71.44-19.46,80.22-22.51C529,414.68,520.79,381.5,514.28,356.14Z"/><path class="cls-1" d="M85.16,437.45c-3,1,10.48,39.51,13.49,38.67,54.1-15.2,92.27-25.22,149.73-27.16-5.47-27.74-8.91-48.52-42.31-50C189.92,398.23,132.09,421.45,85.16,437.45Z"/><path class="cls-10" d="M198.7,396.7c27.29.15,51.93-.51,88.16-1.34,3.41,2.11,1.37,40.32-2.88,84.54-20.14.63-70.4-2-85.27-3.29C196.84,455.84,197.4,420.84,198.7,396.7Z"/><path class="cls-11" d="M22.66,489.2c10.91-5,26.39-14.29,57.88-27.58C84.13,460.11,96.28,472,92.44,473,70.16,478.82,32.35,503.24,22.66,489.2Z"/><path class="cls-11" d="M8.91,477.74c10.91-5,34.61-22.25,67.27-26.34,4-.51,14.37,12.13,10.53,13.13C64.43,470.35,17.15,489.13,8.91,477.74Z"/><path class="cls-1" d="M0,458.55c10.91-5,74.61-23.12,107.27-27.21,4-.51,11,27.37,6.77,32.24-3,15-27.4,21.22-46.06,46.85-3.23,4.43-7.07-3.14-7.24-5.68-.42-6.55,1.71-8.06,6-23.67,2.6-9.52-6.54-15.92-13-17.07C25.32,463.55,6,468.38,0,458.55Z"/><path class="cls-10" d="M285.3,401.56a32.68,32.68,0,0,1,.06-9.32c30.89-5.44,77.09-11.85,110.76-12.56.41,1.34,1.61,3.38,1.83,4.79,3.82,24.34-18.3,47.91-49.41,52.63S289.11,425.91,285.3,401.56Z"/><path class="cls-1" d="M290.27,350.39,306,411.88c3.39,13.22,23.73,19.43,45.44,13.86s36.57-20.8,33.18-34l-15.77-61.49Z"/><path class="cls-12" d="M241.17,374.38a36.58,36.58,0,0,1-.17-10.7c36.71-7.7,92.25-16.3,132.38-18.71a32.33,32.33,0,0,1,1.69,4.49c5.16,27.73-20.63,55.79-57.61,62.67S246.33,402.11,241.17,374.38Z"/><path class="cls-1" d="M497,269c-6,36.82-38.79,62.68-65.4,61.63s-34.42-30.06-33.05-65.13,24.07-62.73,50.67-61.6C485.62,205.46,502.65,234.4,497,269Z"/><path class="cls-13" d="M465.05,280.86c-.61,15.38-12.09,27.41-25.66,26.88S415.34,294.31,416,278.93s12.08-27.4,25.64-26.87S465.65,265.49,465.05,280.86Z"/><path class="cls-1" d="M106.53,308.89c13.11,34.92,50.39,53.79,76.27,47.52s27.81-36.26,19.55-70.37-36-56.75-61.83-50.4C105.19,244.34,94.2,276.07,106.53,308.89Z"/><path class="cls-13" d="M140.84,313.15c3.63,15,17.26,24.48,30.44,21.29s20.94-17.91,17.32-32.87-17.25-24.48-30.44-21.28S137.22,298.19,140.84,313.15Z"/><path d="M118,184.4c11.25,105.91,85.86,146.16,183.24,135.81S471.14,254,459.89,148.12,362.62,20.69,276.75,28.27C188.52,36.06,106.71,78.49,118,184.4Z"/><path class="cls-1" d="M148.86,166.13c10.57-61.35,64.73-84,132.77-91.26l.75-.11c68.14-6.44,125.73,4.94,148.34,63,18.93,48.59,13.37,158.2-2.49,191.94-13.4,28.5-68.27,62.54-112.43,66.5-.44,0-.92,0-1.38,0s-.93.21-1.37.26C269,401.37,208.43,379,189.6,353.71,167.33,323.82,140,217.53,148.86,166.13Z"/><path class="cls-14" d="M419.92,287.38c1.15,6.79-7.36,13.9-19,15.87s-22-1.93-23.17-8.73,7.36-13.9,19-15.87S418.77,280.58,419.92,287.38Z"/><path class="cls-14" d="M224.76,310.57c.19,6.89-9.22,12.74-21,13.07s-21.54-5-21.73-11.88,9.23-12.74,21-13.06S224.57,303.69,224.76,310.57Z"/><path class="cls-15" d="M252.37,318.84c1.07-12,19.43-10.75,48.9-13.92,1.54-.17,7.54-.77,9.08-.92,29.51-2.78,47.25-7.64,50.69,3.88,6.62,22.19-19.35,49.77-49.29,52.88l-.52.05C281.27,363.75,250.31,341.9,252.37,318.84Z"/><path class="cls-16" d="M281.31,356.29l-.61-.25.44-.48a45.88,45.88,0,0,1,59-5.95l.53.38-.55.36a61.65,61.65,0,0,1-28.35,10.88l-.52.06A62,62,0,0,1,281.31,356.29Z"/><path class="cls-17" d="M265.92,308.71l-.18-.51,80.06-8.07-.07.53c-1.29,8.69-17.8,16.81-38.4,18.89S268.94,317,265.92,308.71Z"/><path class="cls-18" d="M292.38,290.56a1.62,1.62,0,0,0,1.46-1.52c.37-5.74,4.47-9.85,10.45-10.45s11,2.66,12.32,8.13a1.63,1.63,0,0,0,3.17-.79c-1.73-7-8.24-11.35-15.81-10.59s-12.92,6.18-13.39,13.49a1.64,1.64,0,0,0,1.53,1.74Z"/><path class="cls-19" d="M258.28,238.05c13,15.31,13.47,33.62,4.27,41.56-13.88,11.95-48.9,18.61-63.62,4.95-14.25-13.23-10.8-40.42,8.85-54C225,218.66,245.68,223.24,258.28,238.05Z"/><path class="cls-18" d="M192,240.3c13.6-27.25,53.47-22.65,66.72-1.73-13-15.3-34.44-18.14-50.34-7.15a39.48,39.48,0,0,0-17,29.26c-.66,9.19,2.45,19.1,8.37,24.59C193.24,282,182,260.34,192,240.3Z"/><path class="cls-20" d="M255.24,249.43a22.43,22.43,0,1,1-30.33-9.28A22.43,22.43,0,0,1,255.24,249.43Z"/><path class="cls-21" d="M253.22,247.65a6.22,6.22,0,1,1-8.42-2.57A6.23,6.23,0,0,1,253.22,247.65Z"/><path class="cls-19" d="M336.16,229.46c-9.38,17.77-5.83,35.74,4.88,41.49,16.14,8.65,51.78,7.52,63.17-9,11-16,1.75-41.79-20.39-50.78C364.45,203.29,345.24,212.26,336.16,229.46Z"/><path class="cls-18" d="M401.34,217.24c-19.19-23.64-57.11-10.48-65.49,12.82,9.37-17.76,29.67-25.2,47.58-17.93a39.49,39.49,0,0,1,23,24.86c2.64,8.83,1.75,19.18-2.83,25.82C409.2,258.17,415.46,234.62,401.34,217.24Z"/><path class="cls-20" d="M383,235.34a22.43,22.43,0,1,1-30.33-9.28A22.43,22.43,0,0,1,383,235.34Z"/><path class="cls-21" d="M381,233.57A6.22,6.22,0,1,1,372.6,231,6.21,6.21,0,0,1,381,233.57Z"/><path class="cls-22" d="M190.6,184.6a8,8,0,0,1-3.73-1.84,7.1,7.1,0,0,1-2.42-5.17,7.19,7.19,0,0,1,2.22-5.36c12.64-12.57,36.93-17.89,57.05-12.61a7.31,7.31,0,0,1,5.42,9.15,7.69,7.69,0,0,1-3.79,4.51,9,9,0,0,1-6,.72c-14.72-3.82-32.71-.08-41.26,8.4a8.26,8.26,0,0,1-7.46,2.2Z"/><path class="cls-22" d="M398.6,154.24c-15.73-10.16-42.42-11.15-63.47-2.34a8.22,8.22,0,0,0-4.52,4.29,6.44,6.44,0,0,0,.22,5.71,8.18,8.18,0,0,0,5.9,4,9.84,9.84,0,0,0,5.49-.6c15.3-6.4,35-6,45.76,1a9.53,9.53,0,0,0,5.91,1.41,9.32,9.32,0,0,0,6.18-3,6.84,6.84,0,0,0,1.78-5.52A6.94,6.94,0,0,0,398.6,154.24Z"/><path d="M112.7,173.23a13.39,13.39,0,0,1-5.87-9.22c-.55-4.81,1.76-9.39,5.77-12.6-9-3.5-15.69-10.89-16.75-20.11C94.64,120.81,101,111,111.07,105.83c-3.93-3-6.48-6.93-7-11.38-1.4-12.12,12.78-23.71,31.67-25.88,1.47-.17,2.92-.26,4.35-.3a12.62,12.62,0,0,1-1.63-4.85c-.64-5.5,2.47-10.72,7.6-13.9A18.83,18.83,0,0,1,155,34.76c9.81-6.35,23.77-4.51,31.68,4a38.08,38.08,0,0,1,19.58-8.06A39,39,0,0,1,221.62,32c-7-5.71-10.32-11.88-7.87-16.62,4.19-8.09,23.38-9,42.86-2a73.5,73.5,0,0,1,17,8.6c-.93-6.89,2.11-13.89,8.77-18.2,10.08-6.53,24.56-4.43,32.34,4.69a19.46,19.46,0,0,1,4.7,10.71,38.69,38.69,0,0,1,16.46-5.81c13.3-1.53,25.54,3.67,32.3,12.52,2-5.78,8.09-10.4,15.72-11.28,10-1.15,18.85,4.56,19.79,12.75a13.67,13.67,0,0,1-4.12,11.13,14.7,14.7,0,0,1,5.32,5.8c10.91-3.72,21.41-2.7,24.71,2.84,1.84,3.08,1.1,7-1.56,10.85,14.87,1.06,26.67,9,27.94,20a16.8,16.8,0,0,1,0,3.4c9.33-2.11,18.71-.08,23.87,6,7.28,8.53,3.42,21.76-8.63,29.57-.3.19-.61.36-.91.54.13.24.28.46.4.71,3.62,7.28,2.58,15.37-1.94,21.86a17.16,17.16,0,0,1,6.4,11.61c1.05,9.1-4.92,17.27-13.32,18.24a14.26,14.26,0,0,1-4.67-.24c-1.05,5.67-3.45,9.56-7.06,10.41-2.6-21.68-9.11-50.3-30.87-72.85-6.54,2.84-15.4,2.58-23.76-1.89-8.78-4.7-14.17-12.43-15.05-19.78-3.47,2.49-9.66,3.43-16.4,2C357,86,351.39,82.29,349.53,78.36a74.44,74.44,0,0,1-23.81,3c-12.51-.33-23.45-3.21-30.2-7.33-4,5.37-13,9.72-23.83,10.82-8.41.85-16.05-.47-21.43-3.16a16.27,16.27,0,0,1-10.88,5.8A16.09,16.09,0,0,1,226.64,83c-4.42,8.88-15.39,17.79-29.94,23a72.36,72.36,0,0,1-13.76,3.41l.17.45c1.13,11.24-9,21.48-22.72,22.86a29.66,29.66,0,0,1-9-.58c-9.87,16.07-12,32-12.27,44.72a21.72,21.72,0,0,1,1,13.87c-.14.56-.49,1-.67,1.52.32,6.16.39,10.08-1.85,10a15.47,15.47,0,0,1-3.81-1.11c-4.17,3.95-9.52,6-14.85,4.68-9-2.31-14-12.8-11.29-23.43A21.93,21.93,0,0,1,112.7,173.23Z"/><path class="cls-11" d="M722.11,413.3c-12-3.3-29.25-10.2-63.52-18.53-3.92-.95-14.33,13.17-10.26,13.56C672,410.58,714.55,429.21,722.11,413.3Z"/><path class="cls-11" d="M734.23,399.35c-11.94-3.3-39-16.94-72.89-15.72-4.19.15-12.64,14.74-8.57,15.12C676.44,401,727.71,412.32,734.23,399.35Z"/><path class="cls-1" d="M740.13,378.33c-12-3.31-79.84-11.22-113.78-10-4.19.16-6.73,29.71-1.58,34,5.52,14.82,31.43,17.09,54.68,40.12,4,4,6.69-4.37,6.43-7-.65-6.74-3.07-7.92-10-23.12-4.22-9.27,4-17.3,10.45-19.54C715.16,387.61,735.64,389.34,740.13,378.33Z"/><ellipse class="cls-23" cx="379.57" cy="1174.2" rx="223.56" ry="22.63"/></g></g></svg>