<svg xmlns="http://www.w3.org/2000/svg" xmlns:xlink="http://www.w3.org/1999/xlink" viewBox="0 0 864.06 1170.79"><defs><style>.cls-1{fill:#752912;}.cls-2{fill:#ffc19f;}.cls-3{fill:#821c08;}.cls-27,.cls-3{opacity:0.19;}.cls-4{fill:#7a4596;}.cls-5{fill:url(#linear-gradient);}.cls-6{fill:#8a51af;}.cls-7{fill:#0687ba;}.cls-8{fill:#e5d8c0;}.cls-9{fill:url(#linear-gradient-2);}.cls-10{fill:#1aa7d3;}.cls-11{fill:#2aa05a;}.cls-12{fill:url(#linear-gradient-3);}.cls-13{fill:#51b77d;}.cls-14{fill:#114244;}.cls-15{fill:#66365a;}.cls-16{fill:#a93cd6;}.cls-17{fill:#fff;}.cls-18{opacity:0.16;}.cls-19{fill:#ff6692;}.cls-20{fill:#e82a6e;}.cls-21{fill:#d3dae5;}.cls-22{fill:#e0956c;}.cls-23{fill:#e02222;}.cls-24{fill:#ff2e2e;}.cls-25{fill:#79b737;}.cls-26{fill:#b31e23;}.cls-28{fill:#f4b18c;}.cls-29{fill:#ff9797;}.cls-30{fill:#701608;}.cls-31{fill:#dd6b5b;}.cls-32{fill:#c4735b;}.cls-33{fill:#681d0c;}.cls-34{fill:#f9feff;}.cls-35{fill:#773220;}.cls-36{fill:#63190d;}.cls-37{fill:#fefffe;}.cls-38{fill:#f9951e;}</style><linearGradient id="linear-gradient" x1="2057.39" y1="-466.45" x2="2062.98" y2="-479.88" gradientTransform="matrix(-2.47, -0.04, 0.01, -0.51, 5816.64, 689.69)" gradientUnits="userSpaceOnUse"><stop offset="0" stop-color="#dcc499"/><stop offset="1" stop-color="#e5d8c0"/></linearGradient><linearGradient id="linear-gradient-2" x1="-3110.65" y1="-639.63" x2="-3106.7" y2="-646.64" gradientTransform="matrix(0.8, -0.02, -0.01, -0.43, 3251.41, 486.84)" xlink:href="#linear-gradient"/><linearGradient id="linear-gradient-3" x1="-1295.32" y1="-378.94" x2="-1307.74" y2="-402.91" gradientTransform="matrix(1.52, 0.01, 0, -0.34, 2581.66, 674.18)" xlink:href="#linear-gradient"/></defs><title>menina sentadaAtivo 3</title><g id="Camada_2" data-name="Camada 2"><g id="Camada_1-2" data-name="Camada 1"><path class="cls-1" d="M668.61,370.62c-8-4.3-32.25-19.67-28.51-63.31,1.39-16.16-9.61-20.92-19.31-25.14-13.24-5.75-24.67-10.71-14.6-39.94,12.58-36.55,1.92-66.47-27.82-78.1-23-9-48.22-28.68-69.85-53.95C499.86,95.36,492.74,81,487.76,70.39,362,56,189,116.86,128,148.43l-35-1.26c-1.16,32.14-29.17,63.16-43.71,85.76-17.63,27.36-23.94,55.12-8.73,82.51,6,10.86,10.79,20.58,8.15,29.52-2.23,7.56-9.91,14.56-23.48,21.37S3.86,380.91,1.11,390.25c-3.9,13.19,3.27,26.12,9.6,37.53,4.45,8.05,5,20.79,3.44,27.51C8.24,480.1.91,489.62,6.56,506.24c-2.77-17.89,6.17-28.22,11.69-49,2.07-7.75,2.3-20.11-6-35-5.9-10.57-10.14-19.39-6.83-30.63,2.37-8,9.48-14.93,21.73-21.09,15-7.51,23.16-15.21,25.82-24.21A24.22,24.22,0,0,0,53.42,336c8.89,16.26,10.06,30.14-18.17,46.58-51.89,30.21,4.4,63.35-2.07,80.8-11.1,30-14.55,35.88-10.29,58,4.89,25.37,23.76,38.84,41.65,42.29-.14-4.05-19.88-25.85-8.57-66.17,5.23,21.1,29.94,69.5,35.7,70.25,91.83,12,362.71,11,455.87-45.47,17.8-10.79,10.25-53.84,14.29-66.25,2.92-9,14.07,40,19.41,52.39,100.17-74.92,47.18-103.53,38.38-109.09-10.39-6.55-14.91-20.36,5.46-83.62,10.39-32.25-52.63-10.93-33.79-65.66,11.29-32.8,2.56-59-26.48-75.1-10.18-5.66-19.84-14.86-28.88-25.48a226.16,226.16,0,0,0,40,21c27.59,10.78,37.85,35.74,26,70.11-11.51,33.44,4.36,40.33,17.11,45.87,9.86,4.28,17.75,7.67,16.56,20.38C631.06,355.59,664.07,369.59,668.61,370.62ZM41.52,307c-10-22.72-5.48-45,9.92-69,8.65-13.44,22.92-25.24,33.66-39.3C73,242.34,39.09,274.81,41.52,307Z"/><path class="cls-2" d="M479,794.54c1.63,4.09,72.16,1.37,71.18-2.92-14.85-64.86-42-172.9-45.08-191.44,0,0-65.67-21.11-68.27,28.76C435.62,651.84,454.72,733.93,479,794.54Z"/><polygon class="cls-3" points="550.18 788.6 510.19 787.64 511.1 757.61 540.94 752.12 550.18 788.6"/><polygon class="cls-4" points="756.77 920.67 773.33 909.75 497.4 896.86 468.43 906.02 756.77 920.67"/><path class="cls-5" d="M758.86,919.34,479.27,905.12l2-49.72s227.24,7.39,276.25,15C768.26,874.33,769.3,916.57,758.86,919.34Z"/><path class="cls-6" d="M472.11,856.06,628,807.29l203.9,7.42-69.39,56.42Z"/><path class="cls-4" d="M755.94,920.66c5,.4,18-2.93,24.87-9.53L835,860.58c6.87-6.57,7.86-40-6.33-43.22l-76.12,53.21C767.49,872.8,764.13,918.8,755.94,920.66Z"/><path class="cls-7" d="M864.06,828.35,733.69,867.43,723,863.76l127.24-38.44Z"/><path class="cls-8" d="M518.74,834.61l215.07,31.21L860.48,787.5,656.39,766.31,519.29,805Z"/><path class="cls-9" d="M733.81,833.47l126.67-46-2.3,40.65L733.81,865.82Z"/><path class="cls-7" d="M513.12,805.5c.2,4.06,1.38,8.08,2.11,15.48.92,9.36-1.75,18,.52,19.32l218.39,27.12c-1.74-3.1-.13-12.94-.52-18.67s-3.33-12.87-2.55-15.86c45.64-16,81-26.31,129.41-45.39L656.25,759.81C603.93,778,565.45,787.35,513.12,805.5Z"/><path class="cls-10" d="M514.81,805.37,732,832.81,860.48,787.5l-203.66-28Z"/><path class="cls-11" d="M666.9,821.49l150-53.62L687.56,729.68l-172.91,72Z"/><path class="cls-12" d="M520.12,800.75,669,820.5c5-7.38,2.48-33.9-.14-40.8L520,759.36C521.82,765.94,522.06,794.79,520.12,800.75Z"/><path class="cls-11" d="M821.19,782.27l.54-40.68L668,779.51c7.5,14.48,3,39.4-1.14,42Z"/><path class="cls-13" d="M516.57,759.83l151.68,19.84L821.19,741.6,678,727.88Z"/><path class="cls-13" d="M640.09,811.39l6.53-7.28,9.5,7.66s-1.45-23.55,3-25.17c-.78.06-15.69-2.6-16.46-2.43C637.79,787.71,640.09,811.39,640.09,811.39Z"/><polygon class="cls-2" points="596.54 854.06 530.98 854.06 541.89 791.84 622.21 822.82 596.54 854.06"/><path class="cls-14" d="M385.7,887.34c2.44,15.34.64,30.59-24.13,34.53s-64.73.92-67.17-14.41,17.26-36.81,42-40.75S383.26,872,385.7,887.34Z"/><path class="cls-15" d="M543,903.5c-13.92-43,7.58-97.06,53.18-90.74,1.94-9.12-77.6-30.52-140.26-48.62-13.85-4-134.83,3.36-163.45,6.53-3.19,52.21-3.58,92,20.73,115.5,13.92,13.45,116,16.3,138.65,16.48C492.7,903,518.2,903.41,543,903.5Z"/><path class="cls-16" d="M516.57,612.36c-25,15.64-55.39,24.23-78.86,31.53C425.3,586.78,405.87,509.34,406,505.23c35.1,4.38,52.85,5.93,62.07,11.25C484.92,537.13,493.47,558.83,516.57,612.36Z"/><path class="cls-16" d="M184.55,786.68c59.52-1.64,137.52,14.55,183.64,9.63,43.4-4.63,47.86-21.53,105.69-27,8.66-10.29-15.95-18.15-16.2-23.22-4-80.48-7.37-183.55-11.84-235.67C421.73,506.19,289,484.29,209.67,517,196.64,568.47,183.68,719.51,184.55,786.68Z"/><path class="cls-2" d="M410.29,517.85c.35-3.79-.52-8.84-1.26-12.48-2.93-.51-6.14-1.07-9.3-1.49-35.51-4.77-84.9-7-130.47-1.33-.13.68-.31,1.45-.36,1.95C266.14,533.79,295,562.91,334,566.59S407.52,547.13,410.29,517.85Z"/><path class="cls-2" d="M393.27,430.79V517c.06,18.57-23.35,33.71-52.47,33.81s-52.92-14.89-53-33.46V430.79Z"/><path class="cls-3" d="M455.9,471.31a47.58,47.58,0,0,0,.93-13.64C411.63,446,343,432.2,293.18,427.12c-.75,1.9-1.92,3.6-2.4,5.63-8.33,35.14,21.89,72.26,67.49,82.91S447.58,506.45,455.9,471.31Z"/><path class="cls-2" d="M149.62,724.26c-.13,4.23,65.61,29.39,66.42,25.25,12.21-62.66,30.29-168,34.9-185.42,0,0-51.8-44.17-74-1.46C166.69,582.24,151.51,661.65,149.62,724.26Z"/><path class="cls-16" d="M143.05,630c25,10.84,94.84,25.32,114.13,25,0-49,.83-133.08-5.72-132.91-10.36-2.9-33.82-4.76-41.79-5C167.63,532.14,161.64,563.84,143.05,630Z"/><path class="cls-2" d="M601.24,821.82c36.3-3.24,49.55,15.59,50.92,45.12,1.55,33.28-23.59,53.23-47,53-66.45-.67-155.95,1.63-174.45,1.68-1.81-7.2-5.8-78.46-5.46-82.31C451.43,836.59,558.79,825.6,601.24,821.82Z"/><path class="cls-17" d="M406.41,828.65c-1.59.16-.17,93.63,1.76,93.83,16.76,1.74,57.13,1.22,66.86,1.94l-8-100.28C448.9,825.94,417.89,827.49,406.41,828.65Z"/><g class="cls-18"><path d="M424.44,837.62c-20.53-32-71.35-41-110.89-50-6.72.79-13.08,1.54-18.2,2.12-.37,6.1-.69,12-1,17.77,4.33,36.24,14.35,66.61,31,89.47,8.61,11.81,17.87,19.35,27.2,24.36a205.07,205.07,0,0,0,28.24,2.26c37.3.29,43.71.53,66.51.67C446.49,889.69,437.7,858.29,424.44,837.62Z"/></g><path class="cls-2" d="M431.6,887c-10.15-45.67-18.51-54.38-35.5-64.58-13.09-7.86-32-8.82-45.79-11.35-58.75,19.78-31.32,96.67-27,105.42,14.74-1.95,19.51,4.62,19.51,4.62,12.23,59.56,26.7,128.05,30.82,146.08,7.42.16,78.59-15,82.26-16.19C452.63,1024.89,439.37,922,431.6,887Z"/><path class="cls-17" d="M365.65,1101.46c.17,1.4,98.76-.17,99-1.86,1.82-14.71,1.22-50.12,2-58.65l-105.77,7.37C362.74,1064.2,364.42,1091.39,365.65,1101.46Z"/><path class="cls-19" d="M475.92,1090.88c-.77-5.12-2.84-11.73-4.34-17.74-1.11-4.45-42.91-8.66-44.23,1.57a64.05,64.05,0,0,0-.54,7.07c-7.14-.76-14.87-1.76-23-3a397.06,397.06,0,0,1-44.43-9.14c-2.63,16.12-4.51,44.35-7.28,62.29,0,0,182,56.7,214.52,33.15C575.77,1158.42,533,1119.14,475.92,1090.88Z"/><path class="cls-20" d="M353.58,1120.63c-.47,4-1,7.87-1.49,11.28,0,0,182,56.7,214.52,33.15,1.3-.94,1.54-2.53.87-4.64C514.82,1165.53,398.94,1133.86,353.58,1120.63Z"/><path class="cls-21" d="M488.34,1097.65a2.62,2.62,0,0,0,1.72-5c-10.54-3.62-23.72-.09-32.07,8.64a2.63,2.63,0,0,0,.08,3.71,2.59,2.59,0,0,0,1.41.7,2.63,2.63,0,0,0,2.3-.78C468.76,1097.66,479.69,1094.61,488.34,1097.65Zm13.54,8.27a2.56,2.56,0,0,0,3.15-2,2.62,2.62,0,0,0-1.95-3.15c-11.24-2.68-23,.27-32.25,8a2.62,2.62,0,0,0-.33,3.69,2.62,2.62,0,0,0,3.69.33C485.12,1103.72,496.22,1104.58,501.88,1105.92Zm15.47,3.92c-10.06-3-23.82.19-33.52,7.66a2.63,2.63,0,0,0-.48,3.68,2.66,2.66,0,0,0,1.68,1,2.62,2.62,0,0,0,2-.51c8.45-6.51,20.36-9.42,28.83-6.79a2.58,2.58,0,0,0,3.26-1.77A2.62,2.62,0,0,0,517.35,1109.84Z"/><path class="cls-15" d="M329.72,923.16c-12.47-43.49-5.36-78.1,14-94.55,21.54-18.26,51.89-11.12,66.42,4.52,6.6-12.9-34.38-27.42-120.2-50.79-13.9-3.79-74.71,2.14-103.41,4.34-4.94,52.08-6.68,91.86,16.83,116.14,13.46,13.9,41.54,17.7,64.2,18.65C291.18,922.46,303.61,922.53,329.72,923.16Z"/><path class="cls-16" d="M331.32,789.39C287.42,780,256.89,786.68,231,811c-17.92,16.84-54.16,18.13-53,1.24,1.18-17.71,6.62-57.77,7.48-71.67C210.05,740.56,334.48,755.39,331.32,789.39Z"/><path class="cls-2" d="M326.05,773.7c4.22.26,8.25-49.67,4.05-50.1-63.51-6.45-160-36.43-177.79-39.44-3.15,28-7.26,51.74,11.91,65.58C182.14,762.68,264.06,769.92,326.05,773.7Z"/><path class="cls-22" d="M416.94,685.18c4.33,9.36-13.45,22.13-29.45,20.82s-42.05-11.47-41.15-22.5C354.51,675.82,408.06,665.92,416.94,685.18Z"/><path class="cls-23" d="M484.58,644.06c-5.47-7.38-18.58-13.21-30-13.08-13.42.15-16.23,7.69-29.64,7.54-9.52-.11-17.9-6.18-27.2-8.22-18.23-4-37.13,8.9-44.76,25.93s-6,36.86-1.2,54.89c6.62,24.54,21.32,49.44,45.54,57.16,6.49,2.07,14,2.67,19.77-.92,1.92-1.19,3.61-2.81,5.73-3.58,3.65-1.32,7.63.15,11.43.94,12,2.48,24.68-2.22,34-10.21s15.54-18.93,20.35-30.19C499.86,697.76,501.79,667.25,484.58,644.06Z"/><path class="cls-24" d="M486.89,647.08c-5.47-7.38-14.69-14.33-23.76-15.82-24.28-4-26.26,8.23-35.73,7.15-27.85-3.16-68.36-9.58-65.75,43.19,3.4,68.6,44.6,62,64.28,72.37,25.82,13.52,57.78-19.13,62.58-30.39C499.84,697,504.09,670.27,486.89,647.08Z"/><path class="cls-25" d="M407.31,604.73a3.21,3.21,0,0,0-1.88.66L401,608.07c7.28,5.54,12.53,14.21,16.49,23.19,2.13,4.83,3.33,10.44,4.39,15.68,1.76.23,3.92.94,5.2-.43.58-.62-.52-3.91-.71-4.67C422.62,627.13,411,609,410,607.2,409.3,606.07,408.47,604.82,407.31,604.73Z"/><path class="cls-25" d="M441.78,618.29c-5.47,3.94-12.34,5.27-19,6.5l-1.85.34a1.9,1.9,0,0,1-1.29-.07,1.93,1.93,0,0,1-.7-1.46c-.89-5.92-1.78-11.9-1.42-17.88s2.07-12,5.88-16.67c6.52-7.93,17.57-10.14,27.73-11.64,1.72,7.23,2.68,14.75,1.46,22.08S447.8,614,441.78,618.29Z"/><path class="cls-26" d="M405.08,641.14a33.76,33.76,0,0,0,19.65,4.92c7.76-.43,16-7.2,16-7.2s-1.93,9.85-17.81,9.49C410.21,648.07,405.08,641.14,405.08,641.14Z"/><path class="cls-27" d="M308.67,709.78c7-6.31,20.19-17.57,43.32-29.47.67-.34,23.52,3.59,39.49,8.48,14.49,4.43,48.94,16.93,50.59,21.82a7.82,7.82,0,0,1-.65,6.46c-4.23,7.5-11.52,9.73-19.68,9.4,3.65,2.33,6.43,4.75,7.46,7.08a6.71,6.71,0,0,1,0,5.68c-4.76,10-11.51,11.67-19.46,10.51a13.44,13.44,0,0,1,2.42,7,6.6,6.6,0,0,1-1.81,5c-2.48,2.67-7.17,3.89-15.74,4.44a17.76,17.76,0,0,1,2.66,6.54,5.79,5.79,0,0,1-.89,4.07c-.67,1-33.13,10.39-48.44,6.72-.92,0-29.56-6.72-30.71-7.07.94-5.24,28.82-19,24.37-22C328.26,745.22,308.67,709.78,308.67,709.78Z"/><path class="cls-2" d="M376.42,744.5c9.21.73,30.17.71,31,12.59.32,4.89-18.63,4.75-36.72,4.88-6,0-7.78-2.13-24.7-6.17-.72,1.5,7.1,6.13,18,8.62,5.92,1.36,25.67-5.43,28.63,9.26.5,2.52-24.64,6.47-30.54,7.32-9.4,1.35-62.64-7.45-65.27-9.27-11-7.61-14.08-20.67-8.24-37.67,6.11-12.79,34.3-40.63,59.51-51.93,18.38,1.12,30.65,4,43.46,6.66,33,14.44,49.24,19.79,45.77,25.92-8.28,14.67-34.62,2.54-48.77-2.07a148.74,148.74,0,0,0-31.22-3.37c-1.6,2.55,19.05,4.89,30.27,7.54,9.08,2.77,40.07,14.64,37.34,20.36-7.34,15.38-19.34,5.09-43.69.27-9.77-1.27-28.26-1.84-29.63-.65C352.93,739.55,358.48,740.38,376.42,744.5Z"/><path class="cls-28" d="M568.42,318.88c-6.11,45-43.81,76.4-74.89,75s-40.88-36.94-40.1-79.79,26.61-76.55,57.68-75C553.59,241.14,574.15,276.6,568.42,318.88Z"/><path class="cls-1" d="M89.09,188.9c-.76,162.45,131.85,255.54,267,241s221.42-137,191-291.89c-16.91-86-102.81-150.64-231.79-136C177.93,17.71,89.67,63,89.09,188.9Z"/><path class="cls-2" d="M145.61,147.62c-9.32,28.4,35,267,66.19,297.38,33.07,32.18,160,48.34,185,45.66,26.78-2.87,112.22-44.82,130.69-86.08,21.86-48.81,9.39-255.85-1.87-280.23C487.51,42,412.87,47.1,315.65,57.53,224.7,67.29,169.79,73.94,145.61,147.62Z"/><path class="cls-2" d="M98.29,379.12c17.28,45,65.62,69,99,60.63S211,294.18,148.62,289.09C96.63,284.85,82,336.84,98.29,379.12Z"/><path class="cls-22" d="M135.7,373c4.82,19.27,28.62,33.36,44.58,26.12,6.22-2.83-12.24-69.88-22.54-68.74C140.32,332.26,130.87,353.68,135.7,373Z"/><path class="cls-29" d="M213.06,378.53c.51,9.79,14.54,17,31.34,16.14s30-9.53,29.48-19.32-14.55-17-31.34-16.15S212.55,368.73,213.06,378.53Z"/><path class="cls-29" d="M473.41,353c1.32,8.62,12.86,14,25.79,12s22.35-10.56,21-19.18-12.86-14-25.79-12S472.1,344.41,473.41,353Z"/><path class="cls-30" d="M452,369.81c-4.3-15.32-27.89-9.27-67-6.23-2,.16-10,.83-12,1-39.06,3.56-63.33,1.54-65,17.36-3.22,30.48,37.28,60.06,77,56.83l.68-.06C425.33,435.26,460.31,399.32,452,369.81Z"/><path class="cls-31" d="M385.89,439.34l-.69.06c-12.88,1-26.53-1.49-39.54-7.27l-.79-.34.59-.62c9.54-10.12,23-16.39,37.92-17.64s29.21,2.66,40.33,11l.69.51-.72.47C411.8,433.43,398.74,438.21,385.89,439.34Z"/><path class="cls-17" d="M380.89,384.07c-27.31,2.31-50.77-4.24-54.56-15.24l-.23-.67,106.14-9-.11.7C430.21,371.39,408.18,381.77,380.89,384.07Z"/><path class="cls-32" d="M366,345.58a2.26,2.26,0,0,0,2-2.1c.45-7.89,6-13.56,14.24-14.44s15.07,3.55,17,11a2.24,2.24,0,0,0,4.35-1.11c-2.44-9.59-11.4-15.51-21.8-14.39s-17.67,8.6-18.25,18.64a2.25,2.25,0,0,0,2.12,2.37Z"/><path class="cls-33" d="M201.4,230.52a7.69,7.69,0,0,0,4.62-2.75c15.18-19,48.67-29.64,78-24.73a7.62,7.62,0,0,0,8.77-6,7.29,7.29,0,0,0-6.07-8.49c-35-5.82-73.9,6.91-92.56,30.29a7.19,7.19,0,0,0,1.29,10.29A7.61,7.61,0,0,0,201.4,230.52Z"/><path class="cls-33" d="M512.61,191.05a6.11,6.11,0,0,0,4.39-2.38c2-2.69,1.37-8.53-1.32-10.58-19.53-14.92-52.7-16.93-78.86-4.83-3.08,1.43-4.24,7.06-2.82,10.13a6.11,6.11,0,0,0,8.13,3c21.93-10.17,50.43-8.7,66.29,3.44A6.1,6.1,0,0,0,512.61,191.05Z"/><path class="cls-1" d="M474,51.93c-39.16-13.34-108.06-12.39-168.47-3-65.67,10.18-131.89,29.8-164.18,58.78C120,126.84,110,246.68,120,235.41c11.4-12.9,30.79-25.86,54.7-37.78,1-13.2,13.44-47.66,16.19-52.41-.19,6.92,1.57,30.88,2.64,43.63,30.14-13.16,65.23-24.55,100-32.49-2.94-13.27.82-31.74.71-32.67,4.72,3.35,16,20.76,20.82,28.17q7.9-1.49,15.68-2.69c47.48-7.35,83.09-9.83,112-8.81-8.38-41.1-10.72-54-10.52-51.13,6.52,8,17.16,32.18,20.86,51.65a261.36,261.36,0,0,1,30,3.72c-1.1-12.17-1.6-32.07-1.77-35.43,4.06,1.64,15.43,27.11,20,39.57,15.62,4.2,29.79,9.7,44.49,16C561.77,171.6,505.57,62.68,474,51.93Z"/><path class="cls-34" d="M432.52,323.66s59.42,15.31,77-22.64c21.42-46.24-23-76-48.44-66.45C437.51,243.42,418.35,270.81,432.52,323.66Z"/><path class="cls-35" d="M507.4,245.25c-12.36-14.58-27.11-18-42.28-14.47-15.51,3.6-29.91,18.58-32.83,32.72,6.68-16.3,20.6-23.53,29.41-26.84,14-5.29,33.86.33,44.18,14.89,9.17,12.95,10.92,33.7,3.06,50.67C519.14,290.15,520.29,260.44,507.4,245.25Z"/><path class="cls-36" d="M440.38,275.15c-3.42,16.15,5,33.1,18.87,37.86s27.84-4.48,31.26-20.63-5-33.1-18.86-37.85S443.81,259,440.38,275.15Z"/><path class="cls-37" d="M441.9,270.1c-.95,4.48,1.39,9.18,5.23,10.5s7.72-1.24,8.67-5.72-1.39-9.18-5.23-10.5S442.85,265.62,441.9,270.1Z"/><path class="cls-34" d="M330.78,335.43s-65.12,29.21-94.87-3.46c-36.26-39.81,7.89-79.47,39.77-76.3C305.19,258.61,334.17,280.62,330.78,335.43Z"/><path class="cls-35" d="M224.58,277.21c10.74-17.15,27-24,45.47-24.25,18.87-.24,39.27,10.87,46.15,23.91-11.77-14.24-29.71-17.92-40.74-19-17.56-1.77-39.19,8.47-47.55,25.12-7.44,14.8-4.34,35.4,9,50C222.06,323.71,213.39,295.09,224.58,277.21Z"/><path class="cls-36" d="M244.54,297.11a30.55,30.55,0,1,0,37.52-21.44A30.54,30.54,0,0,0,244.54,297.11Z"/><path class="cls-37" d="M246.45,292a8.47,8.47,0,1,0,10.41-5.94A8.48,8.48,0,0,0,246.45,292Z"/><path class="cls-38" d="M69.08,217s-8.94,36.15,11.81,33.23,35.41-20.61,32.75-39.51S92,178.86,71.25,181.78,69.08,217,69.08,217Z"/><path class="cls-38" d="M180.49,201.3s18.57,32.28-2.18,35.2-39.72-10-42.38-28.93,12-36.58,32.75-39.51S180.49,201.3,180.49,201.3Z"/><path class="cls-38" d="M138.6,207.68c1.26,9-4.12,17.16-12,18.27s-15.33-5.26-16.6-14.24,4.12-17.16,12-18.28S137.34,198.7,138.6,207.68Z"/></g></g></svg>